<?xml version="1.0" standalone="no"?>
<!DOCTYPE svg PUBLIC "-//W3C//DTD SVG 20010904//EN"
 "http://www.w3.org/TR/2001/REC-SVG-20010904/DTD/svg10.dtd">
<svg version="1.0" xmlns="http://www.w3.org/2000/svg"
 width="1000.000000pt" height="1000.000000pt" viewBox="0 0 1000.000000 1000.000000"
 preserveAspectRatio="xMidYMid meet">
<metadata>
Created by potrace 1.14, written by Peter Selinger 2001-2017
</metadata>
<g transform="translate(0.000000,1000.000000) scale(0.100000,-0.100000)"
fill="#000000" stroke="none">
<path d="M1173 5858 l-23 -11 0 -859 0 -858 88 0 87 0 -1 855 c-1 620 -4 859
-12 867 -16 16 -112 20 -139 6z"/>
<path d="M3897 5844 c-1 -1 -22 -5 -46 -9 -133 -20 -236 -112 -277 -250 -16
-54 -18 -110 -19 -565 -1 -365 3 -522 11 -565 33 -158 123 -256 263 -286 150
-32 301 -1 394 81 44 39 94 140 106 215 5 33 8 290 6 570 -2 442 -4 517 -19
559 -55 165 -165 241 -360 249 -31 2 -58 2 -59 1z m132 -261 c14 -11 31 -38
38 -59 17 -56 16 -1005 -1 -1053 -16 -44 -52 -71 -104 -78 -55 -7 -97 11 -124
56 l-23 36 0 515 c0 479 1 517 18 548 10 19 33 40 50 48 41 18 112 12 146 -13z"/>
<path d="M5132 5834 c-209 -43 -314 -222 -280 -477 7 -53 52 -185 67 -197 3
-3 18 -23 33 -45 27 -40 95 -110 229 -237 134 -127 175 -211 167 -343 -3 -38
-11 -80 -18 -92 -29 -46 -116 -65 -172 -39 -53 26 -69 63 -71 167 -2 82 -4 89
-22 90 -36 1 -190 1 -209 0 -17 -1 -18 -8 -13 -108 7 -122 18 -170 53 -230 79
-137 244 -195 438 -154 180 39 274 178 274 404 0 187 -60 315 -218 465 -181
173 -221 218 -251 278 -38 76 -44 176 -16 231 46 87 185 82 221 -7 8 -20 16
-69 17 -107 l2 -69 121 0 121 1 0 50 c1 190 -62 327 -177 386 -76 39 -199 53
-296 33z"/>
<path d="M1721 5000 l0 -820 115 0 114 0 0 597 c0 328 2 594 4 592 4 -4 32
-108 121 -454 26 -99 62 -241 82 -315 19 -74 36 -142 38 -150 2 -8 18 -72 36
-142 l33 -128 133 0 133 0 0 820 0 820 -115 0 -115 0 -1 -492 -1 -493 -38 145
c-20 80 -72 280 -114 445 -43 165 -78 305 -80 310 -2 6 -6 27 -11 48 l-7 37
-163 0 -164 0 0 -820z"/>
<path d="M2723 5000 l0 -820 351 2 351 3 0 115 0 114 -220 1 -220 0 -3 251 -2
251 167 1 c93 0 173 1 178 1 8 1 13 199 6 231 0 3 -80 4 -176 3 l-175 -2 0
217 0 218 208 -1 c114 0 214 1 222 3 13 3 16 23 16 118 l0 114 -351 0 -352 0
0 -820z"/>
<path d="M5690 5706 c0 -82 3 -115 13 -118 6 -2 67 -4 135 -3 l122 1 0 -703 0
-703 129 0 128 0 1 673 c0 369 1 686 1 703 l1 30 118 -1 c64 0 124 1 133 3 13
3 16 22 16 118 l1 114 -399 0 -399 0 0 -114z"/>
<path d="M6610 5001 l0 -821 130 0 130 0 0 350 c0 273 3 350 13 351 42 4 127
-3 154 -12 43 -14 74 -66 78 -132 2 -28 4 -147 5 -263 1 -116 6 -230 12 -253
l10 -41 129 0 c71 0 129 3 129 8 0 4 -5 23 -10 43 -6 20 -12 157 -14 305 -3
244 -6 275 -25 329 -24 65 -58 107 -110 135 l-35 17 30 16 c59 31 105 96 124
177 14 59 18 254 7 335 -9 69 -60 167 -103 200 -82 63 -115 69 -396 73 l-258
4 0 -821z m452 565 c43 -28 53 -68 53 -216 0 -152 -12 -187 -70 -214 -26 -13
-113 -22 -162 -17 -10 1 -13 55 -13 235 l0 233 83 -2 c59 -1 91 -7 109 -19z"/>
<path d="M7555 5003 l0 -818 353 -3 352 -2 0 114 c0 100 -2 114 -17 118 -10 2
-106 3 -213 3 -107 -1 -200 0 -206 2 -8 3 -11 78 -10 253 l0 248 176 -1 175
-1 2 117 c1 103 0 117 -15 117 -9 1 -89 2 -177 3 l-160 2 0 215 0 215 210 1
c116 1 216 2 223 3 9 1 12 31 12 116 l0 115 -353 0 -352 0 0 -817z"/>
<path d="M8408 5808 c-2 -7 -3 -375 -3 -818 l1 -805 352 -3 352 -2 0 114 c0
82 -3 115 -12 118 -7 2 -106 4 -220 3 -137 -1 -209 3 -211 10 -2 5 -3 118 -3
250 l1 240 160 2 c88 1 168 2 177 2 15 1 17 14 17 116 l-1 115 -47 1 c-25 0
-103 0 -173 1 -86 0 -128 4 -130 12 -3 6 -4 103 -4 216 l1 205 223 0 222 0 0
118 0 117 -349 0 c-270 0 -350 -3 -353 -12z"/>
<path d="M9190 5705 c0 -85 3 -115 13 -116 6 -1 66 -2 132 -3 l120 -1 3 -702
2 -703 128 0 129 0 -1 696 c-1 454 2 698 9 702 6 4 62 8 125 8 63 1 120 2 126
3 8 1 11 39 11 116 l-1 115 -398 0 -398 0 0 -115z"/>
<path d="M675 5575 c-60 -25 -119 -49 -130 -54 -11 -6 -87 -37 -170 -71 -288
-118 -291 -119 -314 -160 -23 -42 -26 -65 -37 -375 -12 -345 -12 -327 6 -345
17 -17 26 -15 166 21 450 118 537 140 540 136 3 -2 -17 -10 -43 -17 -26 -7
-70 -19 -98 -26 -155 -44 -468 -124 -483 -124 -31 -1 9 -17 63 -26 80 -12 136
-12 195 2 61 15 227 54 250 59 8 1 35 8 60 15 25 7 54 14 65 16 81 15 206 50
237 67 42 23 63 61 71 128 8 63 -1 73 -48 60 -32 -9 -40 -8 -51 7 -20 26 -12
35 47 57 l55 20 0 238 c1 130 -2 237 -5 237 -3 0 -22 -4 -40 -10 -38 -11 -61
0 -61 30 0 12 14 21 48 30 59 16 71 26 52 44 -12 10 -173 66 -191 66 -2 0 -4
-137 -4 -305 0 -168 -2 -305 -6 -305 -3 0 -5 135 -3 300 4 379 15 360 -171
285z m145 -19 c9 -11 11 -100 7 -354 -3 -308 -5 -342 -23 -378 -10 -21 -30
-44 -44 -51 -25 -11 -475 -129 -622 -163 -43 -10 -82 -14 -89 -9 -18 11 -17
61 6 552 5 105 25 136 108 171 233 98 606 245 623 245 12 1 27 -6 34 -13z m36
-617 c1 -16 -2 -32 -7 -34 -4 -3 -7 13 -7 35 0 46 12 45 14 -1z m-3 -81 c-10
-54 -36 -98 -70 -120 -19 -11 -33 -15 -33 -9 0 6 5 11 11 11 16 0 58 47 70 77
5 13 9 35 9 49 0 13 4 24 10 24 5 0 7 -14 3 -32z"/>
<path d="M1050 5489 c-77 -20 -96 -30 -86 -47 10 -17 170 30 174 51 4 20 7 20
-88 -4z"/>
<path d="M1127 4964 c-6 -6 -60 -21 -112 -30 -45 -9 -69 -24 -57 -36 7 -7 25
-8 49 -3 21 5 43 9 50 11 51 10 83 27 83 45 0 20 -3 23 -13 13z"/>
</g>
</svg>
