<svg enable-background="new 0 0 228 80" viewBox="0 0 228 80" xmlns="http://www.w3.org/2000/svg"><path d="m164.3 80c-5.6 0-8.9-2.9-9.1-6.9h5.3c0 1.3.8 3.1 4.2 3.2 2.3 0 3.3-1.3 3.3-2.3-.1-1.6-2.1-1.7-4.3-2.1-2.1-.3-3.9-.7-5.3-1.4-1.7-.9-2.8-2.7-2.8-4.9 0-3.6 3.1-6.5 8.3-6.5 5.1 0 8.3 2.7 8.6 6.6h-5.1c-.1-1.1-.3-2.7-3.3-2.7-2 0-3.3.4-3.5 1.8 0 2.1 4.2 1.9 7.5 2.8 3.1.8 5.1 2.7 5.1 5.5.1 5-3.9 6.9-8.9 6.9z"/><path d="m67.5 46.5 17.5-10 9.3 16h-23.4z"/><path d="m106.7 79.5h-5v-20.2h5z"/><path clip-rule="evenodd" d="m59.5 69.5c0 3.1 2.7 5.7 5.8 5.7 3.2 0 5.9-2.6 5.9-5.7s-2.7-5.8-5.9-5.8-5.8 2.7-5.8 5.8zm5.6 10.5c-5.7 0-10.5-4.7-10.5-10.5s4.7-10.4 10.5-10.4c2.2 0 4.3.6 6 1.8v-1.6h4.9v20.2h-4.9v-1.3c-1.6 1.1-3.7 1.8-6 1.8z" fill-rule="evenodd"/><path d="m132.5 52.5-24.4-42.4 17.5-10.1 30.3 52.5z"/><path clip-rule="evenodd" d="m82.6 69.5c0 3.1 2.7 5.7 5.9 5.7 3.1 0 5.8-2.6 5.8-5.7s-2.7-5.8-5.8-5.8c-3.2 0-5.9 2.7-5.9 5.8zm5.7 10.5c-5.8 0-10.5-4.7-10.5-10.5s4.7-10.4 10.5-10.4c2.2 0 4.2.6 5.9 1.8v-8.5h5v27.1h-5v-1.3c-1.7 1.1-3.7 1.8-5.9 1.8z" fill-rule="evenodd"/><path d="m87.9 28.5 17.6-10 19.7 34h-18.5v5h-5v-5z"/><g clip-rule="evenodd" fill-rule="evenodd"><path d="m136.7 69.5c0 3.1 2.7 5.7 5.8 5.7s5.7-2.6 5.7-5.7-2.6-5.8-5.7-5.8c-3.2 0-5.8 2.7-5.8 5.8zm5.6 10.5c-5.7 0-10.5-4.7-10.5-10.5s4.7-10.4 10.5-10.4c2.2 0 4.3.6 5.9 1.8v-1.6h5v20.2h-5v-1.3c-1.7 1.1-3.7 1.8-5.9 1.8z"/><path d="m113.6 69.5c0 3.1 2.7 5.7 5.7 5.7 3.2 0 5.9-2.6 5.9-5.7s-2.7-5.8-5.9-5.8c-3 0-5.7 2.7-5.7 5.8zm11.6-17h4.9v27.1h-4.9v-1.3c-1.7 1.1-3.7 1.8-6 1.8-5.7 0-10.5-4.7-10.5-10.5s4.7-10.4 10.5-10.4c2.3 0 4.3.6 6 1.8z"/></g></svg>