<svg enable-background="new 0 0 228 80" viewBox="0 0 228 80" xmlns="http://www.w3.org/2000/svg"><g fill="#01000b"><path d="m146.1 70.5c.4 0 .7 0 .9.1.3.1.5.4.5.8 0 .3-.1.5-.3.7-.1.1-.3.1-.5.2.3 0 .4.1.6.3.1.2.2.4.2.5v.2.2.2h-.5v-.1-.3c0-.4-.1-.6-.3-.7-.1-.1-.3-.1-.6-.1h-.5v1.3h-.6v-3.3zm.6.5c-.1-.1-.4-.1-.7-.1h-.5v1.2h.5c.3 0 .4 0 .6-.1s.3-.3.3-.5 0-.4-.2-.5m1.6 3.3c-.6.6-1.3.9-2.1.9s-1.5-.3-2.1-.9-.9-1.3-.9-2.1.3-1.5.9-2.1 1.3-.9 2.1-.9 1.5.3 2.1.9.9 1.3.9 2.1-.3 1.5-.9 2.1m-4-4c-.5.5-.8 1.1-.8 1.8s.3 1.3.8 1.8 1.1.8 1.8.8 1.3-.3 1.8-.8.8-1.1.8-1.8-.3-1.3-.8-1.8-1.1-.8-1.8-.8c-.6.1-1.3.3-1.8.8"/><path d="m114 0c-22.1 0-40 17.9-40 40s17.9 40 40 40 40-17.9 40-40-17.9-40-40-40zm0 78c-21 0-38-17-38-38s17-38 38-38 38 17 38 38-17 38-38 38z"/><path d="m126.9 66.4v-35.7c0-2.8 1.1-4.3 3.6-5.1l5.5-1.9v5.1l-2.6.9c-1.2.4-1.7 1.2-1.7 2.6v13.6l3.6-1.2v5.1l-1.7.6c-1.3.4-1.9 1-1.9 2.5v11.9zm10.8-3.7v-35.7c0-2.8 1.1-4.3 3.6-5.1l4.8-1.6v5.1l-1.9.6c-1.2.4-1.7 1.2-1.7 2.6v13.6l3.6-1.2v5.1l-1.7.6c-1.3.4-1.9 1-1.9 2.5v11.8zm-45.7-12.2v8.7l7.6-2.6c3.5-1.2 4.3-3.8 4.3-7.5v-6c0-1.7-.2-3.7-2.8-5.3l-1-.6zm-5.1-23.1c0-5.1-6-5.4-6-5.4l13.4-4.5c3.9-1.3 8-1 10.1 1.8 2.8 3.9 1.6 8.2-.4 11.5l-1.2 1.9 1.1.7c3.5 2.2 5.2 4.7 5.2 8.6v6.1c0 6.6-.9 10.7-8.1 13.2l-14.1 4.8zm5.1 13.8 7.6-12.5c1.2-2 2.1-4.3.8-6-.8-1.1-2.2-1.4-4-.8l-4.4 1.5zm19 8.6v-15.8c0-1.3.6-2 1.7-2.4l3.2-1.1v18.3c0 .9.2 1.4.5 1.7s.7.3 1.1.2l1.8-.6v-18.8c0-1.3.5-2.1 1.7-2.5l3.2-1.1v25.8l-5.7 1.9c-2.3.8-4.6 0-5.7-1-1.2-1.1-1.8-3-1.8-4.6"/></g></svg>