<svg enable-background="new 0 0 228 80" viewBox="0 0 228 80" xmlns="http://www.w3.org/2000/svg"><path d="m39 79.6v-13.7h3v1.2c.5-.5 1.7-1.6 3.7-1.6 1.2 0 3 .5 4.1 1.9 1.3 1.5 1.3 3.8 1.3 4.8v7.4h-3.3v-6.7c0-1.1 0-4.4-2.8-4.4-.6 0-1.7.3-2.2 1.2-.6.8-.6 2.3-.6 3.4v6.5zm16.3-8h7.5c-.4-2.2-2.1-3.2-3.7-3.2-1.2 0-3.2.6-3.8 3.2m.1 2.6c.1.9 1.4 2.8 3.8 2.8 1.4 0 2.5-.6 3.1-1.7h3.4c-.8 2.5-3.4 4.7-6.6 4.7-4.1 0-7.2-3.2-7.2-7.2 0-3.9 3-7.4 7.2-7.4 4.3 0 7.1 3.7 7.1 7.2 0 .6-.1 1.2-.2 1.6zm15 5.4h2l2.6-8.9 2.6 8.9h2l5-13.7h-3.5l-2.5 8.3-2.2-8.3h-2.6l-2.2 8.3h-.1l-2.5-8.3h-3.5zm23.6-7.1c0 3 2.2 4.5 4.1 4.5 2.1 0 3.9-1.6 3.9-4.3s-1.9-4.3-4-4.3c-2.4 0-4 2.2-4 4.1m-3.1-11.2h3.3v5.8c1.1-1.1 2.7-1.7 4.3-1.7 4.2 0 6.9 3.6 6.9 7.2 0 2.7-1.8 7.3-6.8 7.3-2.6 0-3.8-1.2-4.6-2.1v1.6h-3v-18.1zm26.6 11.4c0-2.8-2-4.3-4-4.3-2.7 0-4.1 2.3-4.1 4.4 0 2.3 1.7 4.2 4.1 4.2 2.3 0 4-1.8 4-4.3m3.1 6.9h-3v-1.7c-1 1.2-3.1 2.1-4.8 2.1-3.5 0-6.6-2.8-6.6-7.4 0-4.2 3.1-7.2 6.8-7.2 2.8 0 4.4 2 4.5 2.2v-1.7h3v13.7zm5-18.3h-3.3v18.2h3.3zm12.3 11.4c0-2.8-2-4.3-4-4.3-2.7 0-4.1 2.3-4.1 4.4 0 2.3 1.7 4.2 4.1 4.2 2.3 0 4-1.8 4-4.3m3.1 6.9h-3v-1.7c-1 1.2-3.1 2.1-4.8 2.1-3.5 0-6.6-2.8-6.6-7.4 0-4.2 3-7.2 6.8-7.2 2.8 0 4.4 2 4.5 2.2h.1v-1.7h3zm1.7 0h3.3v-6.5c0-1.2 0-2.6.6-3.4.6-.9 1.7-1.2 2.2-1.2 2.8 0 2.8 3.2 2.8 4.4v6.7h3.3v-7.4c0-1.1 0-3.3-1.3-4.8-1.1-1.4-2.9-1.9-4.1-1.9-2.1 0-3.2 1.1-3.7 1.6v-1.2h-3v13.7m23.7-4.5c-.9 1.4-1.9 1.9-3 1.9-2.5 0-4.1-1.9-4.1-4.3 0-2.8 2-4.3 4-4.3s2.8 1.3 3.2 2h3.7c-1.4-4.2-5.1-5-6.9-5-3.8 0-7.2 3.1-7.2 7.2 0 4.5 3.8 7.3 7.3 7.3 3.2 0 5.7-1.8 6.8-4.9h-3.8m7.6-3.4h7.6c-.4-2.2-2.1-3.2-3.7-3.2-1.3 0-3.3.6-3.9 3.2m.1 2.6c.1.9 1.4 2.8 3.8 2.8 1.5 0 2.5-.6 3.1-1.7h3.4c-.8 2.5-3.4 4.7-6.6 4.7-4.1 0-7.2-3.2-7.2-7.2 0-3.9 3-7.4 7.2-7.4 4.3 0 7.1 3.7 7.1 7.2 0 .6-.1 1.2-.2 1.6zm-59.7-55.6 15.9 1-.6 1.1-54.4 3.5-2.4 4.2 50.6 3.2-.6 1.1-28.1 1.6 2.1 8 19.8 1.2-.6 1.1-18.2 1.3 1.7 6.7h34.8c8.4 0 23.4-5.5 25.2-17.2 1-6.6-4.7-9.1-7-9.4 10.8-3 14.5-10.3 15.3-13.2 2.5-9.6-4.2-12.8-13.3-12.8h-29.5l-3.7 6.5 15.9 1.1-.6 1.1-17.2 1.1zm28.6-8.3h4.9c2.1 0 3.7 2.4 2.5 5.3-1.3 3.1-4.8 4.6-8.1 4.7h-5zm-5.8 20c1.8 0 4.3 1.8 2.9 5.4-1.5 3.8-6.3 5.1-8.9 5.1h-5.8l6.1-10.5zm-75.8 18.1-2.4 4.2h25l3.5-6zm25.5-44.2 24 1.5-1.5-5.7h-20.1zm-4.6 7.9-2.4 4.2 34.3 2.3-2.2-8.3zm-13.9 24.2-2.4 4.2 24.2 1.4 4.4-7.5zm120.2 41.6c0-.9-.7-1.5-1.5-1.5-.9 0-1.5.7-1.5 1.5 0 .9.7 1.5 1.5 1.5.8.1 1.5-.6 1.5-1.5m-3.4 0c0-1.1.9-1.8 1.9-1.8s1.9.8 1.9 1.8c0 1.1-.9 1.8-1.9 1.8-1 .1-1.9-.7-1.9-1.8m1.5-.1h.4c.4 0 .5-.1.5-.4 0-.2-.1-.3-.5-.3h-.4zm0 1.2h-.3v-2.1h.8c.5 0 .8.2.8.6s-.2.5-.6.6l.6.9h-.4l-.6-.9h-.4v.9z"/></svg>