<svg enable-background="new 0 0 228 80" viewBox="0 0 228 80" xmlns="http://www.w3.org/2000/svg"><path d="m89.6 24.7h-5.2v-20.3h-7.4v-4.4h20.1v4.4h-7.5z"/><path d="m104.1 13.6v11.1h-5.2v-24.7h5.2v9.4h9.6v-9.4h5.2v24.7h-5.2v-11.1z"/><path d="m138.9 4.4h-13v5.2h11.4v4.4h-11.4v6.4h13v4.4h-17.8v-24.8h17.8z"/><path d="m42.2 27.3h4.8v24.7h-5.2l-10-17.6h-.1v17.6h-4.8v-24.7h5.4l9.8 17.2h.1z"/><path d="m61.3 26.6c3.3 0 11.9 1.4 11.9 13s-8.6 13-11.9 13-11.9-1.4-11.9-13 8.6-13 11.9-13zm0 21.7c2.8 0 6.7-1.7 6.7-8.6s-3.9-8.6-6.7-8.6-6.7 1.7-6.7 8.6c-.1 6.8 3.9 8.6 6.7 8.6z"/><path d="m109.6 52h-5.2v-20.4h-7.5v-4.4h20.1v4.4h-7.5v20.4z"/><path d="m124.1 40.9v11.1h-5.2v-24.7h5.2v9.4h9.6v-9.4h5.2v24.7h-5.2v-11.1z"/><path d="m75.3 27.3h12.5c6.6 0 7.8 4.9 7.8 7 0 2.7-1.4 5.1-3.8 5.9 2 .9 3.1 1.6 3.1 6.3 0 3.6 0 4.5 1.1 4.9v.6h-5.7c-.3-1.2-.5-2.4-.5-5 0-3.4-.2-4.7-4-4.7h-5.3v9.7h-5.1v-24.7zm11.1 10.8c2.7 0 4-.9 4-3.4 0-1.3-.6-3.2-3.6-3.2h-6.4v6.6z"/><path d="m65.2 79.2h-5.2v-24.7h17.6v4.4h-12.4v5.6h10.9v4.4h-10.9z"/><path d="m79.9 79.2h-5.4l8.8-24.7h6l8.7 24.7h-5.6l-1.6-5.1h-9.1zm3.1-9.3h6.3l-3.1-9.8h-.1z"/><path d="m113.8 62.7c-.4-1.5-1.2-4.3-5.5-4.3-2.5 0-6.1 1.7-6.1 8.6 0 4.4 1.8 8.4 6.1 8.4 2.9 0 4.9-1.6 5.5-4.6h5.2c-1 5.4-4.5 9.1-10.7 9.1-6.6.1-11.3-4.3-11.3-12.9s5-13.1 11.4-13.1c7.4 0 10.4 5.1 10.7 8.7h-5.3z"/><path d="m138.9 58.9h-13v5.2h11.4v4.4h-11.4v6.4h13v4.4h-17.8v-24.8h17.8z"/><path d="m53 72.4c2.1 0 3.8 1.6 3.8 3.8s-1.7 3.8-3.8 3.8-3.8-1.6-3.8-3.8 1.7-3.8 3.8-3.8zm0 7c1.8 0 3.1-1.4 3.1-3.3 0-1.8-1.4-3.2-3.1-3.2-1.8 0-3.1 1.4-3.1 3.2 0 1.9 1.3 3.3 3.1 3.3zm-1.5-5.4h1.7c1.1 0 1.6.4 1.6 1.3 0 .8-.5 1.1-1.2 1.2l1.3 2h-.7l-1.2-1.9h-.7v1.9h-.7v-4.5zm.7 2h.7c.6 0 1.2 0 1.2-.7 0-.6-.5-.7-1-.7h-.9z"/><path d="m201.1 57.3c0-31.7-25.6-57.3-57.3-57.3h-1.1v24.7h1.1c18.4 0 33.4 14.8 33.6 33.2v21.3h23.7z"/><path d="m143.8 54.5h-1.1v24.7h11.9v-14c-.1-5.9-4.9-10.7-10.8-10.7z"/><path d="m174.9 58.2c-.1-17.1-13.9-30.9-31-30.9h-1.2v5 19.7h1.1c7.3 0 13.3 5.9 13.3 13.3v14h17.8z"/></svg>