<svg enable-background="new 0 0 228 80" viewBox="0 0 228 80" xmlns="http://www.w3.org/2000/svg"><path d="m19.6 49.9 6.9-9.9-6.9-9.9-6.9 9.9z"/><path d="m8.5 39.9 8.9-12.9-4.1-6.1-13.3 19.1 13.3 19.1 4.3-6.2z"/><path d="m71 49.2c-.2-.5-.3-1-.3-1.5-.8 1.3-2.3 2.1-3.9 2-3.5-.1-6.3-2.9-6.2-6.4v-.1c-.1-3.5 2.5-6.4 6-6.5h.1c1.4 0 2.8.5 3.8 1.6v-1.1h4.4v8.7.4c-.1 1 .1 2.1.8 3zm-2.7-9.3c-1.4 0-2.4 1.1-2.4 3.3s1 3.3 2.4 3.3 2.4-1.1 2.4-3.3c0-2.3-1-3.3-2.4-3.3"/><path d="m44.6 41.5c1.7 0 2.4.5 2.4 2s-.7 2-3.5 2h-3.1v-4zm-.8-7.1c1.9 0 2.4.7 2.4 1.7s-.5 1.8-2.4 1.8h-3.4v-3.4zm-8.6 14.7h9.5c6.2 0 7.5-2.9 7.5-5.2.1-2.4-1.7-4.4-4.1-4.5 0 0 0 0-.1 0 2.1-.2 3.6-2.1 3.4-4.1 0-2.7-2.2-4.4-6.6-4.4h-9.7z"/><path d="m54 30.9h4.9v18.3h-4.9z"/><path d="m85.8 41.4c-.1-.5-.3-.9-.6-1.3-.3-.3-.8-.5-1.3-.5-1.3 0-2.1 1.1-2.1 3.3 0 3.1 1.1 3.7 2.1 3.7 1.5 0 1.8-.9 2-1.9h4.9c-.1 1.6-1 3.1-2.4 3.8-1.5.8-3.1 1.1-4.8 1.1-3.6.3-6.8-2.3-7.1-5.9 0-.2 0-.4 0-.7.2-3.7 3.3-6.6 7-6.5h.3c3.2-.3 6.1 1.7 6.9 4.8h-4.9z"/><path d="m92.7 49.2v-18.3h4.9v9.8l3.2-3.6h5.8l-4.1 4.3 4.6 7.8h-5.6l-2.4-4.7-1.6 1.5v3.2z"/><path d="m151.2 49.2c-.2-.5-.3-1-.3-1.5-.8 1.3-2.3 2.1-3.9 2-3.5-.1-6.3-2.9-6.2-6.4v-.1c-.1-3.5 2.5-6.4 6-6.5h.2c1.4 0 2.8.5 3.8 1.6v-1.1h4.4v8.7.4c-.1 1.1.1 2.1.8 3zm-2.8-9.4c-1.4 0-2.4 1.1-2.4 3.3s1 3.3 2.4 3.3 2.4-1.1 2.4-3.3-1-3.3-2.4-3.3"/><path d="m186 43.2c0-2.4.9-3.7 2.4-3.7s2.4 1.2 2.4 3.7-.9 3.7-2.4 3.7-2.4-1.3-2.4-3.7m10.1 0c0-3.7-2.5-6.6-7.6-6.6s-7.6 2.9-7.6 6.6 2.5 6.5 7.6 6.5 7.6-2.9 7.6-6.5"/><path d="m119 34.6h3c2.6 0 5 1.2 5 5.4 0 3.4-1.5 5.4-5 5.4h-3zm-5.3 14.6h7.8c7.2 0 10.8-2.8 10.8-9.2s-3.7-9.2-10.8-9.2h-7.9z"/><path d="m134.1 37.4h4.9v11.8h-4.9z"/><path d="m134.1 31h4.9v4.4h-4.9z"/><path d="m157.9 49.2v-12.1h4.8v1.7c.8-1.4 2.3-2.3 3.9-2.3 1.5-.1 3 .8 3.7 2.1.8-1.4 2.2-2.2 3.8-2.1 2.6 0 5 1 5 5.2v7.4h-5v-7.4c.1-.8-.4-1.5-1.2-1.6-.1 0-.3 0-.4 0-.8-.1-1.5.5-1.6 1.3v.4 7.4h-4.9v-7.4c.1-.8-.4-1.5-1.2-1.6-.1 0-.2 0-.4 0-.8-.1-1.5.5-1.6 1.3v.4 7.4z"/><path d="m197.8 49.2v-12.1h4.8v2c.7-1.7 2.4-2.8 4.3-2.6 2.4-.2 4.4 1.6 4.6 3.9v.4 8.2h-4.9v-7c0-1.3-.5-1.8-1.7-1.8-1.1 0-2 1-2 2.1v6.9z"/><path d="m223.1 30.9h4.9v18.3h-4.6v-1.4c-1 1.3-2.5 2.1-4.1 2-3.4-.1-6.1-2.9-6-6.4-.4-3.3 1.9-6.3 5.2-6.7h.6c1.5-.1 2.9.4 4 1.4zm-2.4 9c-1.3 0-2.4 1.1-2.4 3.3s1 3.3 2.4 3.3 2.4-1.1 2.4-3.3-1-3.3-2.4-3.3"/><path d="m216.9 30.9.7 2.2.7-2.2h.8v3.1h-.5v-2.5l-.8 2.5h-.5l-.8-2.5v2.5h-.5v-3.1zm-3.6.5v-.5h2.4v.5h-.9v2.6h-.5v-2.6z"/></svg>