<svg enable-background="new 0 0 228 80" viewBox="0 0 228 80" xmlns="http://www.w3.org/2000/svg"><path d="m23.1 43.2v.8c0 2.8-1.1 5-3.4 6.5-2 1.4-4.5 2.1-7.5 2.1h-12.2v-30.5h12.5c2.2 0 4.1.8 5.5 2.4 1.5 1.6 2.2 3.5 2.2 5.7 0 2.6-1.1 4.7-3.4 6.3 4 .9 6.1 3.1 6.3 6.7m-13.2-14.9h-2.1v5.9h2.1c.8 0 1.5-.3 2.1-.9s.9-1.3.9-2.1c0-.9-.3-1.5-.9-2.1-.5-.5-1.2-.8-2.1-.8m5.2 14.5c-.2-1.8-1.5-2.8-3.9-2.8h-3.3v6.5h3.8c1 0 1.8-.3 2.4-.8.7-.6 1-1.4 1-2.4.1-.1 0-.3 0-.5"/><path d="m42.5 52.6h-17.3v-30.5h7.9v23.8h9.4z"/><path d="m75.7 52.6h-8.3l-2-5.3h-10.8l-2.1 5.3h-8.3l11.6-30.5h8.7zm-12.4-11.3-3.3-9.6-3.3 9.6z"/><path d="m96.9 32.2c-1.7-2.2-4-3.4-6.8-3.3-2.2 0-4.1.8-5.7 2.4s-2.4 3.5-2.5 5.7c-.1 2.4.7 4.4 2.3 6.2s3.6 2.6 5.8 2.4c3-.2 5.2-1.3 6.7-3.2v9.4c-2.2 1-4.3 1.5-6.4 1.5-.7 0-1.4 0-2.2-.1-4.2-.4-7.8-2.2-10.6-5.4s-4.1-6.9-4-11.2c.2-4.4 1.9-8 5.2-11s7.2-4.4 11.6-4.3c2.2 0 4.4.5 6.4 1.4v9.5z"/><path d="m127.1 52.6h-10.3l-10-13.3v13.3h-7.7v-30.5h7.7v12.6l9.5-12.6h9.8l-11.9 14.5z"/><path d="m153.8 52.6h-9.8l-7.5-11.7v11.7h-7.8v-30.5h11.1c3.1 0 5.6.7 7.5 2 2.2 1.5 3.4 3.9 3.7 7.1v.8c0 2-.6 3.8-1.8 5.2-1.2 1.3-2.7 2.3-4.8 3zm-10.8-20.6c0-1-.4-1.9-1.1-2.6s-1.6-1.1-2.5-1.1h-2.7v7.4h2.9c.9-.1 1.7-.5 2.4-1.2s1-1.5 1-2.5"/><path d="m204.9 52.6h-17.3v-30.5h8v23.8h9.3z"/><path d="m224.3 52.6h-17.2v-30.5h7.9v23.8h9.3z"/><path d="m180.8 26.2c-3.2-3.1-7.1-4.7-11.8-4.7-4.4 0-8.3 1.5-11.5 4.5-3.3 3.1-5 6.9-5 11.5s1.7 8.5 5.2 11.7c3.3 3 7 4.5 11.3 4.5 4.5 0 8.3-1.6 11.6-4.7s4.9-6.9 4.9-11.3c0-4.6-1.6-8.4-4.7-11.5m-7.6 15.4c-1.2 1.1-2.5 1.7-4.1 1.7-1.5 0-2.9-.5-4-1.6-1.2-1.1-1.8-2.5-1.8-4.2 0-1.6.6-3 1.8-4.1 1.1-1.1 2.5-1.6 4.1-1.6 1.7 0 3.1.6 4.2 1.7s1.7 2.5 1.7 4c-.2 1.6-.8 2.9-1.9 4.1"/><path d="m227 23.2c.7.7 1 1.6 1 2.5 0 1-.4 1.9-1 2.5-.7.7-1.6 1.1-2.6 1.1s-1.8-.4-2.5-1.1-1.1-1.6-1.1-2.5c0-1 .4-1.9 1.1-2.6s1.5-1 2.5-1 1.9.4 2.6 1.1m-.3.3c-.6-.6-1.4-.9-2.3-.9s-1.6.3-2.2.9-1 1.4-1 2.3c0 .8.3 1.6.9 2.2s1.4.9 2.2.9c.9 0 1.6-.3 2.3-.9.6-.6.9-1.4.9-2.2.1-.9-.2-1.7-.8-2.3m-.5 1.2c0 .6-.4 1-1 1.1l.9 1.9h-.8l-.9-1.8h-.9v1.8h-.5v-4.1h1.5c1.1 0 1.7.3 1.7 1.1m-2.5-.7v1.4h.7c.8 0 1.1-.2 1.1-.7s-.4-.7-1.1-.7z"/><path d="m211.4 55.5c-.5 0-.9.4-.9 1s.3 1 .9 1c.3 0 .5-.1.7-.3v1.2c-.3.2-.6.3-1 .3-1.1 0-2-.8-2-2.1 0-1.2.8-2.1 2-2.1.4 0 .7.1 1 .2v1.2c-.1-.3-.4-.4-.7-.4"/><path d="m215 58.6c-1.2 0-2.2-.9-2.2-2.1 0-1.1.9-2.1 2.2-2.1 1.2 0 2.2.9 2.2 2.1-.1 1.2-1 2.1-2.2 2.1m0-3c-.5 0-.8.4-.8.9 0 .6.3.9.8.9s.8-.4.8-.9-.3-.9-.8-.9"/><path d="m223 56.4c0-.6-.1-.9-.6-.9-.6 0-.7.5-.7 1.4v1.6h-1.3v-2.1c0-.6-.1-.9-.5-.9-.6 0-.7.5-.7 1.4v1.6h-1.3v-3.9h1.3v.7c.3-.5.7-.8 1.3-.8s1 .2 1.2.7c.3-.5.7-.7 1.3-.7.5 0 .8.2 1 .5s.3.7.3 1.2v2.4h-1.3z"/><path d="m207.1 57.6h1.1v1.1h-1.1z"/></svg>