<svg enable-background="new 0 0 228 80" viewBox="0 0 228 80" xmlns="http://www.w3.org/2000/svg"><path d="m156.8 5.5c-7.4 0-12.4 4.4-12.4 10.9 0 6.2 5.3 10.9 12.4 10.9 7.3 0 12.4-4.5 12.4-10.9 0-6.5-5-10.9-12.4-10.9m0 16.4c-3.1 0-5.6-2.5-5.6-5.6 0-3 2.5-5.5 5.6-5.5s5.6 2.5 5.6 5.5c0 3.1-2.5 5.6-5.6 5.6"/><path d="m131.9 5.8h-4.4v5.6h3c2.5 0 4.4 2.1 4.4 4.7 0 3.2-2.6 4.7-4.3 4.8h-5.5v-20.9h-6.8v26.5h12.3c5.4 0 11.3-4.1 11.3-10.2-.1-6.5-5.1-10.5-10-10.5"/><path d="m70.3 16.2c0-2.6 2.1-4.8 4.7-4.8h5.4l-4.4 7.2h6.5l4.4-6.8v-6h-13c-5.7 0-10.3 4.6-10.3 10.3s4.6 10.3 10.3 10.3h13.1v-5.6h-12c-2.5.1-4.7-2-4.7-4.6"/><path d="m50.9 0h-16.7v26.5h6.6v-20.7h8.6c2.4 0 4.9 1.2 4.9 4.7 0 2.7-1.9 4.7-4.5 4.7h-6.6v5.5h4.6c4 .2 5.8 2 5.8 5.9v5.7h6.9v-7.5c0-4-2.9-6-5.6-6.7 4.3-1.5 6.4-4.8 6.4-8.8 0-5.8-5.4-9.3-10.4-9.3"/><path d="m187.6 15.5c4.6-1.4 5.9-3.9 5.9-8.9v-.8h-6.8v1.1c0 3.3-1.4 5.7-4.6 5.7h-3.2v-12.6h-6.9v26.5h6.9v-8.3h2.5c3.4 0 5.5 1.9 5.5 5v3.2h6.8v-3c.1-3.9-1.7-6.7-6.1-7.9"/><path d="m136.5 55.3c17.5-7 28.4-11.1 57.3-18.1-15.7 1-50.4 3.4-74.3 8.1 0 0 16.6 9.8 17 10"/><path d="m82 78.5h22.9c4.5-6.9 9-10.2 14.3-14-4-1.5-8-3-12-4.5-14.6 6.6-22.8 15.3-25.2 18.5"/><path d="m86.6 53.5c-20.4 7.3-31.7 15.2-39.4 25h25.2c2.5-3.4 11.8-13.3 29.5-20.2-4.9-1.6-9.9-3.2-15.1-4.8-.1 0-.2 0-.2 0"/><path d="m97 38.1h-55.9c56.4 10.2 83.5 23.3 127.2 41.9-3.7-2.8-63.9-38.3-71.3-41.9"/><path d="m97 16.2c0-2.6 2.1-4.8 4.7-4.8h5.4l-4.4 7.2h6.5l4.4-6.8v-6h-13c-5.7 0-10.3 4.6-10.3 10.3s4.6 10.3 10.3 10.3h13.1v-5.6h-12c-2.6.1-4.7-2-4.7-4.6"/></svg>