<svg enable-background="new 0 0 228 80" viewBox="0 0 228 80" xmlns="http://www.w3.org/2000/svg"><path d="m114.8 3.3-12.2 17h24.6z"/><path d="m73.1 40.3s-.1-.1-.1-.1c-.1 0-.1-.1-.2-.1h-6.4c-.1 0-.2.1-.2.1-.1 0-.1.1-.2.1-.1.1-.1.2-.2.3 0 .1-.1.2-.1.5v21.9c0 .1-.1.8-.1 1.3-.1.5-.1.8-.2 1.2s-.3 1-.5 1.5c-.3.5-.7 1-1.2 1.3-.4.3-.8.6-1.3.9-.6.3-1.2.6-1.9.8s-1.5.3-2.2.4c-.6.1-1.2.1-1.8 0-.7 0-1.4-.1-2.1-.3-.6-.1-1.2-.3-1.8-.6s-1.1-.6-1.6-1.1c-.4-.4-.7-.8-1-1.2-.2-.3-.3-.6-.5-1-.2-.6-.5-1.4-.5-1.9v-23.2c0-.1 0-.3-.1-.5 0-.1-.1-.2-.1-.2s-.1-.1-.1-.1c-.1 0-.1-.1-.2-.1h-6.4c-.1 0-.1 0-.2.1-.1 0-.2.1-.2.1-.1.1-.1.2-.2.3 0 .2-.1.4-.1.5v23.8c0 .6 0 1.2.1 1.8.1.7.3 1.4.5 2s.4 1.1.8 1.7.9 1.2 1.5 1.7c.6.6 1.2 1.1 1.9 1.6s1.4.8 2.2 1.2c.8.3 1.5.6 2.3.9l2.7.6c.9.2 1.8.3 2.6.3s1.5 0 2.3-.1c.9-.1 1.9-.3 2.7-.4.7-.1 1.3-.3 1.9-.4.7-.2 1.5-.4 2.2-.7.9-.3 1.8-.8 2.6-1.3s1.4-1.1 2.1-1.7c.6-.6 1.2-1.3 1.7-2 .4-.6.7-1.1.9-1.7.2-.7.3-1.6.4-2.3s.1-1.3.2-2.1.1-1.8.1-1.9v-21.2c0-.1 0-.3-.1-.5.1 0 .1-.1.1-.2m-38.7 21.8c-.1-.4-.3-.8-.5-1.2s-.5-.8-.7-1.1-.4-.6-.7-.9-.6-.6-1-.9-.9-.6-1.3-.9-.8-.5-1.2-.7-.8-.4-1.3-.6-1-.4-1.6-.5c-.6-.2-1.4-.3-2.2-.5s-1.6-.3-2.5-.4-1.7-.3-2.6-.4-1.7-.3-2.4-.4-1.3-.3-1.9-.4-1.2-.2-1.6-.4c-.5-.1-.9-.3-1.2-.5-.4-.2-.7-.4-.9-.6s-.3-.3-.4-.4c-.1-.2-.2-.3-.3-.6-.1-.2-.2-.5-.2-.7 0-.3 0-.6 0-.9s.1-.6.2-.9.2-.5.3-.7.3-.4.5-.6.5-.4.7-.6c.3-.2.5-.3.9-.5.3-.2.8-.4 1.2-.5.5-.2.9-.3 1.5-.4.5-.1 1.1-.2 1.7-.2h1.5c.6 0 1.2.1 1.8.2s1 .2 1.5.4 1 .4 1.5.6.9.4 1.3.6c.4.3.9.6 1.3.9s.7.6.9.9l.6.6c.1.1.2.2.3.3.1 0 .2.1.3.1s.2 0 .4-.1c1.6-1.1 3.2-2.3 4.9-3.4.1-.1.2-.2.2-.3.1-.1.1-.2 0-.3-.2-.5-1.5-1.5-2.6-2.3s-2.1-1.3-3-1.7c-.8-.4-1.4-.7-2.3-.9-1-.3-2.3-.6-3.5-.8-1.1-.2-2.2-.3-3.3-.2-1.2 0-2.6.1-3.8.3-1.1.1-2 .3-3 .5-1.1.3-2.3.6-3.4 1.2-1.2.5-2.4 1.2-3.3 2-.8.7-1.4 1.5-1.9 2.2-.6.5-.9 1-1.1 1.5-.2.4-.3.8-.4 1.3s-.2 1.1-.2 1.5c0 .3-.1.5-.1.8 0 .6.1 1.5.2 2.2.1.6.3 1.1.6 1.6.4.6.9 1.3 1.5 2 .8.7 1.7 1.4 2.6 1.8.8.4 1.5.7 2.4.9 1 .3 2.2.6 3.5.9 1.4.3 2.8.4 4.1.6 1.1.1 2.2.3 3.2.5.9.1 1.8.3 2.5.5.6.2 1.2.4 1.7.6.4.2.8.4 1.2.7s.9.8 1.2 1.3c.2.5.3 1 .3 1.5 0 .4 0 .9-.1 1.3s-.2.9-.6 1.3c-.4.5-1 1.1-1.6 1.5s-1.3.6-2 .8c-.8.2-1.7.4-2.5.5-.7.1-1.2.1-1.8.1-.8 0-1.7-.1-2.5-.2-.6-.1-1-.1-1.6-.2-.7-.1-1.6-.4-2.3-.7-.5-.2-.9-.4-1.4-.6-.5-.3-1.1-.5-1.7-1-.8-.6-1.6-1.5-1.9-1.8-.1-.1-.1-.1-.2-.1s-.1 0-.2 0-.2 0-.3 0l-5.5 3.7c-.1.1-.1.3-.1.3 0 .1 0 .2.2.4s.5.6.9.9c.3.3.6.6 1 .9s.9.7 1.6 1.1c.6.4 1.4.8 2.2 1.1s1.7.7 2.6 1 1.9.5 2.8.7c1 .2 1.9.3 2.9.3 1 .1 2 .1 2.8.1.9 0 1.7-.1 2.6-.2s1.9-.3 2.9-.4c1-.2 1.9-.4 2.8-.7s1.7-.6 2.5-1 1.5-.8 2-1.1.9-.6 1.4-1c.4-.4.9-.9 1.2-1.3.4-.4.7-.8.9-1.2.3-.4.5-.8.7-1.3s.3-.9.4-1.4c.1-.4.1-.9.2-1.2 0-.4.1-.8 0-1.1 0-.4 0-.8-.1-1.3-.1-1-.2-1.4-.3-1.8m115.4-21.5c0-.2-.1-.2-.2-.3s-.3-.1-.4-.1h-5.9c-.2 0-.4 0-.6.1-.1.1-.2.2-.2.3-.1.2-.1.5-.1.6v21.4c0 .3-.1.4-.1.4s-.1.1-.1.1c-.1 0-.1 0-.2 0-.1-.1-.3-.2-.3-.3-5.4-7.3-10.8-14.7-16.2-22-.1 0-.2-.2-.4-.4-.3-.1-.7-.2-.9-.2h-5c-.1 0-.3 0-.5.1-.1.1-.3.2-.4.3-.2.2-.1.5-.2.9v33.4c0 .2 0 .5.1.7s.5.3.5.3h5.7c.3 0 .7 0 .9-.2s.3-.6.3-.6v-22.4c0-.1 0-.5.1-.6 0-.1.1-.2.2-.2s.1 0 .2.1c.2.1.4.5.4.5l16.5 22.8c.1.1.3.4.5.5s.3.1.3.1h5.4c.1 0 .2 0 .3-.1.1 0 .2-.1.3-.2.1-.2.1-.5.1-.5 0-11.3 0-22.7 0-34 0-.1 0-.4-.1-.5m36.4-.5h-29.9c-.2 0-.5 0-.7.2-.2.1-.2.4-.2.4v4.5c0 .2 0 .5.2.6s.4.1.7.1h9.8c.4 0 .9 0 1.1.4.2.3.3.9.3.9v27.9c0 .2 0 .5.1.6s.4.1.4.1h6.2c.2 0 .4 0 .5-.2s.2-.6.2-.6v-28s0-.6.3-.9c.3-.4 1-.3 1.4-.3h9.5c1 0 1.1-.3 1.1-.8v-4.2c-.1-.5-.3-.7-1-.7m-74.8.2s-.1-.1-.1-.1c-.1 0-.1-.1-.2-.1h-6.4c-.1 0-.2.1-.2.1-.1 0-.1.1-.2.1-.1.1-.1.2-.1.3s-.1.2-.1.5v21.9c0 .1-.1.8-.1 1.3-.1.5-.1.8-.2 1.2s-.3 1-.6 1.5-.7 1-1.2 1.3c-.4.3-.8.6-1.3.9-.6.3-1.2.6-1.9.8s-1.5.3-2.2.4c-.6.1-1.2.1-1.8 0-.7 0-1.4-.1-2.1-.3-.6-.1-1.2-.3-1.8-.6s-1.1-.6-1.6-1.1c-.4-.4-.7-.8-1-1.2-.2-.3-.3-.6-.5-1-.2-.6-.5-1.4-.5-1.9v-23.2c0-.1 0-.3-.1-.5 0-.1-.1-.2-.1-.2s-.1-.1-.1-.1c-.1 0-.1-.1-.2-.1h-6.4c-.1 0-.2.1-.2.1-.1 0-.1.1-.2.1-.1.1-.1.2-.2.3 0 .2-.1.4-.1.5v23.8c0 .6 0 1.2.1 1.8.1.7.3 1.4.5 2s.4 1.1.8 1.7.9 1.2 1.5 1.7c.6.6 1.2 1.1 1.9 1.6s1.4.8 2.2 1.2c.8.3 1.5.6 2.3.9l2.7.6c.9.2 1.8.3 2.6.3s1.5 0 2.3-.1c.9-.1 1.9-.3 2.7-.4.7-.1 1.3-.3 1.9-.4.7-.2 1.5-.4 2.2-.7.9-.3 1.8-.8 2.6-1.3s1.5-1.1 2.1-1.7 1.2-1.3 1.7-2c.4-.6.7-1.1.9-1.7.2-.7.3-1.6.4-2.3s.1-1.3.2-2.1.1-1.8.1-1.9v-21.2c0-.1 0-.3-.1-.5.2 0 .2-.1.1-.2m108.5 21.9c-.7 2.4-2 4.5-4.1 5.9-2.1 1.5-4.9 2.4-7.5 2.5s-5-.8-6.9-2.2-3.4-3.5-4.1-6-.8-5.5-.3-8.1 1.6-4.9 3.5-6.6c2-1.7 4.9-2.8 7.8-2.9 2.9 0 5.7 1 7.7 2.8 2.1 1.8 3.4 4.3 4 6.9.7 2.7.6 5.4-.1 7.7m7.4-9.8c-1.2-4.4-3.9-7.7-7.3-10-3.4-2.2-7.6-3.4-11.9-3.3s-8.8 1.5-12.2 4.1c-3.4 2.5-5.7 6.2-6.7 10.3s-.7 8.6.9 12.3c1.7 3.8 4.8 6.8 8.1 8.6 3.3 1.7 6.8 2.2 10 2.2s6-.4 9.2-1.9c3.2-1.6 6.7-4.3 8.7-8.4 2-4 2.4-9.5 1.2-13.9"/></svg>