<svg enable-background="new 0 0 228 80" viewBox="0 0 228 80" xmlns="http://www.w3.org/2000/svg"><path d="m58.7 2.3c-12.5 0-26.3 7.6-35 14.9l.7 1c13.5-9.4 32.1-15.5 37.3-6.3 2.7 4.8-1.9 14.6-8.4 22.3 1.6-3.4.5-9.9-8.5-9.9-15.1-.2-44.8 19.7-44.8 40 0 8.1 5.7 13.4 15 13.4 25 0 59-40.8 59-61.3 0-7.2-4.2-14.1-15.3-14.1m-35.1 53.5c-4.3 0-6.4-3.3-5.3-7.1 2.2-7.9 16.7-19.7 26.5-19.7 7.2 0 6.6 6.4 2.4 11.8l-2.3 2.6c-8.4 8-16.1 12.4-21.3 12.4z"/><path d="m114.1 23.8c-2.3-2.8-6-4.1-8.7-4.1h-14.7l-2.5 9.2h13.8l1.3.1s1.3.1 2 1.1c.6.8.6 1.9.2 3.5l-.7 2.4h-8.7c-7.5 0-17.9 5.3-20.2 14-1.2 4.3-.1 8 2.1 10.8 2.2 2.7 6.4 4.2 11 4.2h8.1 10.2l4.8-17.8 3.5-13.1c1.5-5.2 0-8.5-1.5-10.3m-23.2 32c-1.5 0-2.7-.5-3.4-1.4-.8-1-1-2.3-.6-3.8.8-3.1 4.2-5.5 7.6-5.5h8.1l-2.9 10.7z"/><path d="m214.6 19.7c-4 0-7.6 1.2-10.6 3.4s-4.7 4.9-5.7 8.6c-2.2 8 4.2 11.8 9.2 14.6 3.6 2 6.8 3.6 6.1 6.2-.5 1.8-1.3 3.4-5.8 3.4h-13.7l-2.5 9.2h15.1c4.1 0 7.8-.8 10.8-3.1s4.7-5.5 5.8-9.5c1-3.7.3-7.3-2.1-10-2-2.2-4.9-3.8-7.5-5.2-3.3-1.8-6.4-3.4-5.8-5.4.3-1.2 1.5-2.9 4.2-2.9h13.3l2.5-9.2h-13.3z"/><path d="m135.3 19.7c-4 0-7.6 1.2-10.6 3.4s-4.7 4.9-5.7 8.6c-2.2 8 4.2 11.8 9.2 14.6 3.6 2 6.8 3.6 6.1 6.2-.5 1.8-1.3 3.4-5.8 3.4h-13.7l-2.5 9.2h15.1c4.1 0 7.8-.8 10.8-3.1s4.7-5.5 5.8-9.5c1-3.7.3-7.3-2.1-10-2-2.2-4.9-3.8-7.5-5.2-3.3-1.8-6.4-3.4-5.8-5.4.3-1.2 1.5-2.9 4.2-2.9h13.3l2.5-9.2h-13.3z"/><path d="m155.9 19.7-11.9 45.3h10.1l11.8-45.3z"/><path d="m192.6 19.7c-17.6.1-26.9 11.7-29.8 22.6-3.5 12.9 3.4 22.6 16.1 22.6h8.5l2.5-9.2h-8.5c-4.7 0-11.2-3.7-8.6-13.4 2.1-7.7 9.7-13.4 18-13.4h5.4l2.5-9.2z"/></svg>