<svg enable-background="new 0 0 228 80" viewBox="0 0 228 80" xmlns="http://www.w3.org/2000/svg"><path d="m183.1 78.9h.6v-1.3h.7c.2 0 .5.2.5.5 0 .2 0 .8.1.8h.6c-.1 0-.2-.5-.2-.9 0-.5-.4-.6-.5-.7.1 0 .6-.3.6-.7 0-.5-.4-.9-1-.9h-1.4zm.6-2.8h.7c.3 0 .5.3.5.5s-.2.5-.5.5h-.7z"/><path d="m181.5 77.3c0 1.5 1.2 2.7 2.7 2.7s2.7-1.2 2.7-2.7-1.2-2.7-2.7-2.7-2.7 1.2-2.7 2.7m5.2 0c0 1.3-1.1 2.4-2.4 2.4s-2.4-1.1-2.4-2.4 1.1-2.4 2.4-2.4c1.3-.1 2.4 1 2.4 2.4z"/><path d="m119.4 67c.6-.7.9-1.5.9-2.4v-3.4h-17.3v3.8h9.5l-8.4 9.2c-.6.7-.9 1.5-.9 2.4v3.4h17.3v-3.8h-9.5z"/><path d="m162.7 61.2c-2.1 0-3.8 1.7-3.8 3.8v11.3c0 2.1 1.7 3.8 3.8 3.8h13.4c2.1 0 3.7-1.7 3.7-3.8v-11.3c0-2.1-1.7-3.8-3.8-3.8zm8.2 3.7c1 0 1.9.8 1.9 1.9v7.5c0 1-.8 1.9-1.9 1.9h-2.9c-1 0-1.9-.8-1.9-1.9v-7.5c0-1 .8-1.9 1.9-1.9z"/><path d="m93.6 61.2h7.2v15.1c0 2.1-1.7 3.8-3.7 3.8h-3.4v-18.9"/><path d="m126.5 80c-2.1 0-3.8-1.7-3.8-3.8v-15h7.2v13.2c0 1 .9 1.9 1.9 1.9h2.3c1 0 1.9-.8 1.9-1.9v-13.2h16.7c2.1 0 3.8 1.7 3.8 3.8v15h-7.2v-13.2c0-1-.8-1.9-1.9-1.9h-4.2v11.3c0 2.1-1.7 3.8-3.7 3.8z"/><path d="m83 54.7c-2.7 0-5.1 1.2-6.7 3.2l-18.4 22.1h10.4l13.9-16.8c1-1.2 2.6-2 4.4-2h3.7l-15.5 18.8h11.2c2.6 0 4.7-2.1 4.7-4.7v-20.6z"/><path d="m59.4 57.9-18.3 22.1h10.4l13.9-16.8c1-1.2 2.6-2 4.4-2h3.8v-6.5h-7.4c-2.8 0-5.2 1.2-6.8 3.2"/><path clip-rule="evenodd" d="m98.5 31.6c6.2.2 11-.3 19.6-2.2-4.1 3-7.7 8.6-8.1 12.8-2.1-3.1-7.1-8.1-11.5-10.6m23.9 22.9c-1.7-5.5-4.3-17.9 6.7-25.5 7.8-5.5 31.5-11.9 44.1-16.6l9.1-12.4c-8.7 4.5-20 9-30.3 12.2-22.9 7-36.6 11.2-54.3 11.5-12.6.3-12.8-5.7-.5-16.5-13.8 5.4-33.3 11.8-55.6 16.8 19.9.6 35 4.6 44.1 9.9 12.9 7.5 16.1 15.4 17.5 20.6z" fill-rule="evenodd"/></svg>