<svg height="222pt" preserveAspectRatio="xMidYMid meet" viewBox="0 0 500 222" width="500pt" xmlns="http://www.w3.org/2000/svg"><g transform="matrix(.1 0 0 -.1 0 222)"><path d="m790 2058c0-7 94-276 209-598l208-585 129-3 129-2 191 487 191 488 1209 5 1209 5 7 55c4 30 8 78 9 105l3 50h-1308-1308l-161-408c-93-237-164-402-168-395s-62 168-129 358-131 369-142 398l-19 52h-130c-97 0-129-3-129-12z"/><path d="m3763 1720c-150-32-237-122-237-245 0-68 16-105 65-153 38-37 97-61 253-103 149-40 191-73 163-130-21-41-73-61-149-56-77 5-110 22-140 73l-20 34h-104c-95 0-104-2-104-19 0-62 60-156 127-199 78-50 149-65 279-60 101 4 118 7 177 36 98 49 147 127 147 236 0 70-41 151-95 189-26 18-91 42-182 66-156 43-178 52-193 82-27 50 25 89 117 89 66 0 116-24 135-65 11-24 14-25 110-25 95 0 98 1 98 23 0 36-57 125-101 157-86 62-239 93-346 70z"/><path d="m1916 1493c-47-120-121-309-165-420l-79-203h122 122l20 63 20 62 161 3 161 2 21-55c12-31 21-60 21-65 0-6 50-10 120-10 66 0 120 2 120 5 0 2-63 179-141 392-78 214-146 400-151 416l-10 27h-128-129zm252-201c23-70 42-131 42-135s-40-7-90-7c-49 0-90 3-90 8 0 14 85 262 90 262 3 0 25-58 48-128z"/><path d="m2660 1290v-420h110 111l-3 205c-2 113-1 205 2 205s73-92 155-204l150-205h103l102-1v420 420h-115-115l-2-225-3-224-139 224-140 225h-108-108z"/><path d="m572 540c-53-13-108-55-131-102-54-112 3-231 129-273 41-14 56-15 87-5 95 30 150 85 168 167 17 81-49 182-138 208-55 16-66 17-115 5zm111-110c55-43 44-135-20-165-67-32-133 11-133 88 0 84 88 128 153 77z"/><path d="m170 503c0-21 3-55 6-75 6-36 9-38 42-38h35l-7 46c-3 26-6 60-6 75 0 26-3 29-35 29-34 0-35-1-35-37z"/><path d="m280 511c0-15 3-49 6-75 7-45 8-46 42-46h35l-7 53c-3 28-6 62-6 75 0 19-5 22-35 22-32 0-35-3-35-29z"/><path d="m890 355v-185h55 55v65 64l87 3 86 3v40 40l-86 3-87 3v29 30h95 95v45 45h-150-150z"/><path d="m1257 533c-4-3-7-87-7-185v-178h55 55v65 65h91 90l-3 43-3 42-87 3-88 3v29 30h100 100v45 45h-148c-82 0-152-3-155-7z"/><path d="m1740 495v-45h55 55v-140-140h55 55v140 140h55 55v45 45h-165-165z"/><path d="m2140 355v-185h50 50v70 70h70 70v-70-70h50 50v185 185h-50-50v-70-70h-70-70v70 70h-50-50z"/><path d="m2550 355v-185h156 155l-3 43-3 42h-98-97v27 27l88 3 87 3v39 39l-87-2-88-2v30 31h100 100v45 45h-155-155z"/><path d="m3026 518c4-13 33-97 64-188l57-165 41-3c47-4 54 5 92 123 12 39 26 73 29 78 4 4 15-17 26-45 59-170 52-158 100-158h43l61 183c34 100 61 186 61 190s-23 7-52 5l-52-3-31-104c-18-57-34-100-37-95s-20 53-38 107l-32 98-46-3-45-3-36-105-35-105-33 108-34 107h-55c-53 0-55-1-48-22z"/><path d="m3720 537c0-2-36-85-79-185l-80-182h55c53 0 56 2 67 30 11 30 12 30 88 30 77 0 77 0 88-30 9-29 13-30 67-30 41 0 55 3 51 13-2 6-38 90-78 185l-73 172h-53c-29 0-53-1-53-3zm89-214c1-9-13-13-39-13-22 0-40 2-40 4s10 26 21 53l21 48 18-40c10-22 19-46 19-52z"/><path d="m4030 355v-185h145 145v45 45h-90-90v140 140h-55-55z"/><path d="m4380 355v-185h146 145l-3 43-3 42-92 3-93 3v139 140h-50-50z"/><path d="m4650 518c0-13-3-47-6-75l-7-53h35c34 0 35 1 42 46 3 26 6 60 6 75 0 26-3 29-35 29-30 0-35-3-35-22z"/><path d="m4760 496c0-24-3-58-6-75-6-30-5-31 29-31 40 0 47 13 47 98v52h-35c-35 0-35 0-35-44z"/></g></svg>